<svg width="158" height="35" viewBox="0 0 158 35" fill="none" xmlns="http://www.w3.org/2000/svg">
<path d="M148.918 31.34C149.886 31.34 150.737 31.3253 151.47 31.296C152.233 31.2373 152.864 31.1493 153.362 31.032V24.212C153.069 24.0653 152.585 23.948 151.91 23.86C151.265 23.7427 150.473 23.684 149.534 23.684C148.918 23.684 148.258 23.728 147.554 23.816C146.88 23.904 146.249 24.0947 145.662 24.388C145.105 24.652 144.636 25.0333 144.254 25.532C143.873 26.0013 143.682 26.632 143.682 27.424C143.682 28.8907 144.152 29.9173 145.09 30.504C146.029 31.0613 147.305 31.34 148.918 31.34ZM148.566 10.836C150.209 10.836 151.588 11.056 152.702 11.496C153.846 11.9067 154.756 12.508 155.43 13.3C156.134 14.0627 156.633 14.9867 156.926 16.072C157.22 17.128 157.366 18.3013 157.366 19.592V33.892C157.014 33.9507 156.516 34.0387 155.87 34.156C155.254 34.244 154.55 34.332 153.758 34.42C152.966 34.508 152.101 34.5813 151.162 34.64C150.253 34.728 149.344 34.772 148.434 34.772C147.144 34.772 145.956 34.64 144.87 34.376C143.785 34.112 142.846 33.7013 142.054 33.144C141.262 32.5573 140.646 31.7947 140.206 30.856C139.766 29.9173 139.546 28.788 139.546 27.468C139.546 26.2067 139.796 25.1213 140.294 24.212C140.822 23.3027 141.526 22.5693 142.406 22.012C143.286 21.4547 144.313 21.044 145.486 20.78C146.66 20.516 147.892 20.384 149.182 20.384C149.593 20.384 150.018 20.4133 150.458 20.472C150.898 20.5013 151.309 20.56 151.69 20.648C152.101 20.7067 152.453 20.7653 152.746 20.824C153.04 20.8827 153.245 20.9267 153.362 20.956V19.812C153.362 19.1373 153.289 18.4773 153.142 17.832C152.996 17.1573 152.732 16.5707 152.35 16.072C151.969 15.544 151.441 15.1333 150.766 14.84C150.121 14.5173 149.27 14.356 148.214 14.356C146.865 14.356 145.677 14.4587 144.65 14.664C143.653 14.84 142.905 15.0307 142.406 15.236L141.922 11.848C142.45 11.6133 143.33 11.3933 144.562 11.188C145.794 10.9533 147.129 10.836 148.566 10.836Z" fill="white"/>
<path d="M136.007 34.728C133.485 34.6693 131.695 34.1266 130.639 33.1C129.583 32.0733 129.055 30.4746 129.055 28.304V0.84798L133.147 0.143982V27.644C133.147 28.3186 133.206 28.876 133.323 29.316C133.44 29.756 133.631 30.108 133.895 30.372C134.159 30.636 134.511 30.8413 134.951 30.988C135.391 31.1053 135.934 31.208 136.579 31.296L136.007 34.728Z" fill="white"/>
<path d="M122.094 33.628C121.155 33.8626 119.908 34.112 118.354 34.376C116.828 34.64 115.054 34.772 113.03 34.772C111.27 34.772 109.788 34.5226 108.586 34.024C107.383 33.496 106.415 32.7626 105.682 31.824C104.948 30.8853 104.42 29.7853 104.098 28.524C103.775 27.2333 103.614 25.8106 103.614 24.256V11.408H107.706V23.376C107.706 26.1626 108.146 28.1573 109.026 29.36C109.906 30.5626 111.387 31.164 113.47 31.164C113.91 31.164 114.364 31.1493 114.834 31.12C115.303 31.0906 115.743 31.0613 116.154 31.032C116.564 30.9733 116.931 30.9293 117.254 30.9C117.606 30.8413 117.855 30.7826 118.002 30.724V11.408H122.094V33.628Z" fill="white"/>
<path d="M65.9792 12.068C66.9179 11.8333 68.1499 11.584 69.6753 11.32C71.2299 11.056 73.0193 10.924 75.0433 10.924C76.5099 10.924 77.7419 11.1293 78.7393 11.54C79.7366 11.9213 80.5726 12.4933 81.2473 13.256C81.4526 13.1093 81.7753 12.904 82.2153 12.64C82.6553 12.376 83.1979 12.1267 83.8433 11.892C84.4886 11.628 85.2073 11.408 85.9993 11.232C86.7913 11.0267 87.6419 10.924 88.5513 10.924C90.3113 10.924 91.7486 11.188 92.8633 11.716C93.9779 12.2147 94.8433 12.9333 95.4593 13.872C96.1046 14.8107 96.5299 15.9253 96.7353 17.216C96.9699 18.5067 97.0873 19.9147 97.0873 21.44V34.288H92.9953V22.32C92.9953 20.9707 92.9219 19.812 92.7753 18.844C92.6579 17.876 92.4086 17.0693 92.0273 16.424C91.6753 15.7787 91.1766 15.3093 90.5312 15.016C89.9153 14.6933 89.1086 14.532 88.1113 14.532C86.7326 14.532 85.5886 14.7227 84.6793 15.104C83.7993 15.456 83.1979 15.7787 82.8753 16.072C83.1099 16.8347 83.2859 17.6707 83.4033 18.58C83.5206 19.4893 83.5793 20.4427 83.5793 21.44V34.288H79.4873V22.32C79.4873 20.9707 79.4139 19.812 79.2673 18.844C79.1206 17.876 78.8566 17.0693 78.4753 16.424C78.1233 15.7787 77.6246 15.3093 76.9793 15.016C76.3633 14.6933 75.5712 14.532 74.6032 14.532C74.1926 14.532 73.7526 14.5467 73.2832 14.576C72.8139 14.6053 72.3593 14.6493 71.9193 14.708C71.5086 14.7373 71.1273 14.7813 70.7753 14.84C70.4233 14.8987 70.1886 14.9427 70.0713 14.972V34.288H65.9792V12.068Z" fill="white"/>
<path d="M57.4546 10.924C57.8066 10.924 58.2026 10.9533 58.6426 11.012C59.1119 11.0413 59.5666 11.1 60.0066 11.188C60.4466 11.2467 60.8426 11.32 61.1946 11.408C61.5759 11.4667 61.8546 11.5253 62.0306 11.584L61.3266 15.148C61.0039 15.0307 60.4613 14.8987 59.6986 14.752C58.9653 14.576 58.0119 14.488 56.8386 14.488C56.0759 14.488 55.3133 14.576 54.5506 14.752C53.8173 14.8987 53.3333 15.0013 53.0986 15.06V34.288H49.0066V12.376C49.9746 12.024 51.1773 11.7013 52.6146 11.408C54.0519 11.0853 55.6653 10.924 57.4546 10.924Z" fill="white"/>
<path d="M43.2493 22.848C43.2493 24.6667 42.9853 26.3093 42.4573 27.776C41.9293 29.2427 41.1813 30.504 40.2133 31.56C39.2747 32.616 38.1453 33.4373 36.8253 34.024C35.5053 34.5813 34.068 34.86 32.5133 34.86C30.9587 34.86 29.5213 34.5813 28.2013 34.024C26.8813 33.4373 25.7373 32.616 24.7693 31.56C23.8307 30.504 23.0973 29.2427 22.5693 27.776C22.0413 26.3093 21.7773 24.6667 21.7773 22.848C21.7773 21.0587 22.0413 19.4307 22.5693 17.964C23.0973 16.468 23.8307 15.192 24.7693 14.136C25.7373 13.08 26.8813 12.2733 28.2013 11.716C29.5213 11.1293 30.9587 10.836 32.5133 10.836C34.068 10.836 35.5053 11.1293 36.8253 11.716C38.1453 12.2733 39.2747 13.08 40.2133 14.136C41.1813 15.192 41.9293 16.468 42.4573 17.964C42.9853 19.4307 43.2493 21.0587 43.2493 22.848ZM38.9813 22.848C38.9813 20.2667 38.3947 18.228 37.2213 16.732C36.0773 15.2067 34.508 14.444 32.5133 14.444C30.5187 14.444 28.9347 15.2067 27.7613 16.732C26.6173 18.228 26.0453 20.2667 26.0453 22.848C26.0453 25.4293 26.6173 27.4827 27.7613 29.008C28.9347 30.504 30.5187 31.252 32.5133 31.252C34.508 31.252 36.0773 30.504 37.2213 29.008C38.3947 27.4827 38.9813 25.4293 38.9813 22.848Z" fill="white"/>
<path d="M0.286133 34.288V3.79596H18.6781V7.44796H4.55413V16.644H17.0941V20.252H4.55413V34.288H0.286133Z" fill="white"/>
</svg>
